<svg xmlns="http://www.w3.org/2000/svg" viewBox="0 0 1200 630" width="1200" height="630">
  <!-- Background gradient -->
  <defs>
    <linearGradient id="bgGradient" x1="0%" y1="0%" x2="100%" y2="100%">
      <stop offset="0%" style="stop-color:#4F46E5;stop-opacity:1" />
      <stop offset="100%" style="stop-color:#7C3AED;stop-opacity:1" />
    </linearGradient>
    <linearGradient id="cardGradient" x1="0%" y1="0%" x2="100%" y2="100%">
      <stop offset="0%" style="stop-color:#FFFFFF;stop-opacity:0.1" />
      <stop offset="100%" style="stop-color:#FFFFFF;stop-opacity:0.05" />
    </linearGradient>
  </defs>
  
  <!-- Background -->
  <rect width="1200" height="630" fill="url(#bgGradient)"/>
  
  <!-- Background pattern -->
  <circle cx="200" cy="150" r="100" fill="#FFFFFF" opacity="0.03"/>
  <circle cx="1000" cy="400" r="150" fill="#FFFFFF" opacity="0.03"/>
  <circle cx="900" cy="100" r="80" fill="#FFFFFF" opacity="0.03"/>
  
  <!-- Main content card -->
  <rect x="60" y="80" width="1080" height="470" rx="20" fill="url(#cardGradient)" stroke="#FFFFFF" stroke-width="1" opacity="0.1"/>
  
  <!-- Logo/Icon section -->
  <circle cx="220" cy="250" r="80" fill="#FFFFFF" stroke="#E5E7EB" stroke-width="2"/>
  
  <!-- Speech bubbles in logo -->
  <circle cx="200" cy="230" r="20" fill="#4F46E5" opacity="0.8"/>
  <polygon points="200,250 195,260 205,260" fill="#4F46E5" opacity="0.8"/>
  
  <circle cx="240" cy="260" r="15" fill="#F59E0B" opacity="0.8"/>
  <polygon points="240,275 237,282 243,282" fill="#F59E0B" opacity="0.8"/>
  
  <!-- Text in speech bubbles -->
  <text x="200" y="235" font-family="Arial, sans-serif" font-size="12" fill="#FFFFFF" font-weight="bold" text-anchor="middle">Hi</text>
  <text x="240" y="265" font-family="Arial, sans-serif" font-size="10" fill="#FFFFFF" font-weight="bold" text-anchor="middle">¡Hola!</text>
  
  <!-- Microphone in logo -->
  <rect x="210" y="270" width="8" height="15" rx="4" fill="#4F46E5"/>
  <rect x="205" y="265" width="18" height="12" rx="6" fill="#4F46E5"/>
  <line x1="220" y1="285" x2="220" y2="295" stroke="#4F46E5" stroke-width="3"/>
  <line x1="210" y1="295" x2="230" y2="295" stroke="#4F46E5" stroke-width="3"/>
  
  <!-- Main title -->
  <text x="400" y="180" font-family="Arial, sans-serif" font-size="72" fill="#FFFFFF" font-weight="bold">Polygloss</text>
  
  <!-- Subtitle -->
  <text x="400" y="230" font-family="Arial, sans-serif" font-size="32" fill="#E0E7FF" font-weight="300">AI-Powered Language Learning</text>
  
  <!-- Features -->
  <text x="400" y="290" font-family="Arial, sans-serif" font-size="24" fill="#FFFFFF" font-weight="500">🎤 Voice Conversation Practice</text>
  <text x="400" y="325" font-family="Arial, sans-serif" font-size="24" fill="#FFFFFF" font-weight="500">🤖 Intelligent AI Tutors</text>
  <text x="400" y="360" font-family="Arial, sans-serif" font-size="24" fill="#FFFFFF" font-weight="500">📈 Real-time Feedback</text>
  <text x="400" y="395" font-family="Arial, sans-serif" font-size="24" fill="#FFFFFF" font-weight="500">🇪🇸 Master Spanish Fluently</text>
  
  <!-- Call to action -->
  <rect x="400" y="440" width="300" height="60" rx="30" fill="#FFFFFF" stroke="#E5E7EB" stroke-width="2"/>
  <text x="550" y="480" font-family="Arial, sans-serif" font-size="24" fill="#4F46E5" font-weight="bold" text-anchor="middle">Start Learning Today</text>
  
  <!-- Decorative elements -->
  <circle cx="950" cy="200" r="6" fill="#FBBF24"/>
  <circle cx="980" cy="180" r="4" fill="#34D399"/>
  <circle cx="920" cy="170" r="5" fill="#F87171"/>
  
  <circle cx="950" cy="350" r="5" fill="#A78BFA"/>
  <circle cx="920" cy="380" r="4" fill="#60A5FA"/>
  <circle cx="980" cy="370" r="6" fill="#FBBF24"/>
</svg> 